<svg id="visual" viewBox="0 0 500 300" width="500" height="300" xmlns="http://www.w3.org/2000/svg" xmlns:xlink="http://www.w3.org/1999/xlink" version="1.1"><rect x="0" y="0" width="500" height="300" fill="#e8e8e8"></rect><path d="M0 83L11.8 76.2C23.7 69.3 47.3 55.7 71.2 57.2C95 58.7 119 75.3 142.8 86.8C166.7 98.3 190.3 104.7 214.2 103.5C238 102.3 262 93.7 285.8 84C309.7 74.3 333.3 63.7 357.2 67C381 70.3 405 87.7 428.8 92C452.7 96.3 476.3 87.7 488.2 83.3L500 79L500 0L488.2 0C476.3 0 452.7 0 428.8 0C405 0 381 0 357.2 0C333.3 0 309.7 0 285.8 0C262 0 238 0 214.2 0C190.3 0 166.7 0 142.8 0C119 0 95 0 71.2 0C47.3 0 23.7 0 11.8 0L0 0Z" fill="#fbfbfb" stroke-linecap="round" stroke-linejoin="miter"></path></svg>